<svg width="688" height="590" viewBox="0 0 688 590" fill="none" xmlns="http://www.w3.org/2000/svg">
<path opacity="0.4" d="M624.607 41.4102C479.832 -27.4825 415.969 160.909 316.138 191.906C216.394 237.253 120.215 184.176 60.8283 229.674C-33.3064 301.794 8.01039 427.963 68.2737 481.05C154.694 557.18 308.272 529.78 467.012 447.462C665.894 344.329 751.55 101.817 624.607 41.4102Z" fill="#98C3E8"/>
<path opacity="0.2" d="M143.5 116.5C148.5 129 133.5 148.5 112 155C93.4998 160.593 75.4998 160 70.4998 147C66.0767 135.5 79.9998 123 95.9998 116.5C112 110 138.5 104 143.5 116.5Z" fill="#98C3E8"/>
<path opacity="0.2" d="M307 91C303.109 81.0604 316.816 57.8658 333.802 52.7986C348.419 48.4383 362.111 38.1637 366 48.5C369.44 57.6437 358.909 78.3246 346.26 83.415C333.612 88.5054 310.891 100.94 307 91Z" fill="#98C3E8"/>
<path opacity="0.2" d="M295.792 583.215C291.901 573.276 303.816 557.866 320.802 552.799C335.419 548.438 349.614 548.985 353.503 559.321C356.944 568.465 345.908 578.325 333.26 583.415C320.612 588.505 299.684 593.155 295.792 583.215Z" fill="#98C3E8"/>
<path opacity="0.2" d="M471.573 532.55C463.478 513.52 489.279 471.235 524.573 461.55C554.942 453.216 603.982 470.26 612.072 490.05C619.229 507.555 572.353 504.66 546.074 514.393C519.795 524.126 479.667 551.579 471.573 532.55Z" fill="#98C3E8"/>
<mask id="mask0_0_1548" style="mask-type:alpha" maskUnits="userSpaceOnUse" x="20" y="30" width="648" height="490">
<path d="M606.962 42.9443C466.39 -19.131 410.042 163.479 315.141 196.024C220.694 242.339 127.118 194.084 71.3641 239.416C-17.0125 311.272 25.8608 431.217 85.0062 480.486C169.824 551.139 316.342 520.544 466.39 437.093C654.38 332.539 730.22 97.3739 606.962 42.9443Z" fill="#98C3E8"/>
</mask>
<g mask="url(#mask0_0_1548)">
<rect x="-85.083" y="-50.5983" width="805.162" height="681.485" fill="url(#paint0_linear_0_1548)"/>
<path d="M16.5085 166.467C90.336 203.697 172.998 307.904 172.998 357.662C172.998 418.869 43.221 512.678 -16.3037 565.893L491.655 598.705C473.566 517.726 427.894 337.7 455.688 297.716C491.655 245.974 637.207 258.594 718.816 268.059L740.902 37.7424C701.148 54.3588 612.177 102.105 563.589 89.4847C518.615 77.8031 432.34 27.4359 395.742 -4.53494" stroke="white" stroke-opacity="0.2" stroke-width="15"/>
<path d="M206.441 109.677C226.634 214.844 281.531 407.637 339.583 337.469C412.149 249.76 469.57 136.179 523.837 211.269C567.25 271.34 631.107 389.843 657.61 441.585" stroke="white" stroke-opacity="0.2" stroke-width="15"/>
<path fill-rule="evenodd" clip-rule="evenodd" d="M434 171C434 175.418 430.418 179 426 179C421.582 179 418 175.418 418 171C418 166.582 421.582 163 426 163C430.418 163 434 166.582 434 171ZM103 344C107.418 344 111 340.418 111 336C111 331.582 107.418 328 103 328C98.5817 328 95 331.582 95 336C95 340.418 98.5817 344 103 344ZM277 446C281.418 446 285 442.418 285 438C285 433.582 281.418 430 277 430C272.582 430 269 433.582 269 438C269 442.418 272.582 446 277 446ZM551 328C555.418 328 559 324.418 559 320C559 315.582 555.418 312 551 312C546.582 312 543 315.582 543 320C543 324.418 546.582 328 551 328Z" fill="white" fill-opacity="0.6"/>
<circle cx="73" cy="423" r="18" stroke="white" stroke-opacity="0.4" stroke-width="8"/>
<circle cx="653" cy="146" r="18" stroke="white" stroke-opacity="0.4" stroke-width="8"/>
<circle cx="403" cy="379" r="18" stroke="white" stroke-opacity="0.4" stroke-width="8"/>
</g>
<g filter="url(#filter0_d_0_1548)">
<rect x="453" y="100" width="88" height="88" rx="10" fill="white"/>
</g>
<path d="M493.599 143.472C493.527 143.305 493.422 143.153 493.29 143.026C493.032 142.769 492.685 142.624 492.32 142.624C491.955 142.624 491.605 142.77 491.347 143.028C491.089 143.286 490.945 143.636 490.945 144.001C490.945 144.182 490.981 144.36 491.05 144.527C491.119 144.694 491.221 144.846 491.349 144.973C491.476 145.105 491.627 145.209 491.795 145.281C491.963 145.353 492.144 145.39 492.326 145.392C492.509 145.393 492.69 145.358 492.859 145.289C493.028 145.219 493.181 145.117 493.31 144.988C493.439 144.858 493.541 144.705 493.61 144.536C493.678 144.367 493.713 144.185 493.711 144.003C493.709 143.82 493.671 143.64 493.599 143.472Z" fill="#98C3E8"/>
<path d="M497.489 139.584C497.417 139.416 497.313 139.265 497.181 139.138C496.922 138.887 496.575 138.749 496.214 138.752C495.854 138.755 495.509 138.9 495.254 139.155C494.999 139.41 494.854 139.754 494.851 140.115C494.848 140.476 494.987 140.823 495.237 141.082C495.364 141.213 495.516 141.318 495.683 141.39C495.851 141.462 496.032 141.5 496.214 141.502C496.397 141.503 496.578 141.469 496.747 141.4C496.916 141.33 497.069 141.228 497.198 141.099C497.327 140.97 497.43 140.817 497.499 140.648C497.568 140.479 497.603 140.298 497.601 140.115C497.599 139.932 497.562 139.752 497.489 139.584Z" fill="#98C3E8"/>
<path d="M501.37 135.696C501.301 135.529 501.2 135.377 501.073 135.249H501.07C500.81 134.999 500.463 134.86 500.103 134.863C499.742 134.867 499.397 135.011 499.142 135.266C498.887 135.521 498.743 135.866 498.74 136.226C498.737 136.587 498.875 136.934 499.126 137.194C499.253 137.322 499.405 137.423 499.572 137.492C499.739 137.561 499.917 137.597 500.098 137.597C500.279 137.597 500.458 137.562 500.625 137.493C500.792 137.424 500.943 137.323 501.071 137.195C501.199 137.067 501.3 136.916 501.37 136.749C501.439 136.582 501.475 136.403 501.475 136.223C501.475 136.042 501.44 135.863 501.37 135.696Z" fill="#98C3E8"/>
<path d="M501.37 151.253C501.301 151.086 501.2 150.934 501.073 150.806H501.07C500.81 150.556 500.463 150.417 500.103 150.42C499.742 150.423 499.397 150.568 499.142 150.823C498.887 151.078 498.743 151.423 498.74 151.783C498.737 152.144 498.875 152.491 499.126 152.75C499.253 152.878 499.405 152.98 499.572 153.049C499.739 153.118 499.917 153.154 500.098 153.154C500.279 153.154 500.458 153.119 500.625 153.05C500.792 152.981 500.943 152.879 501.071 152.752C501.199 152.624 501.3 152.473 501.37 152.306C501.439 152.139 501.475 151.96 501.475 151.779C501.475 151.599 501.44 151.42 501.37 151.253Z" fill="#98C3E8"/>
<path d="M503.987 149.264C504.352 149.264 504.702 149.119 504.96 148.861C505.218 148.602 505.362 148.252 505.362 147.887C505.362 147.523 505.217 147.173 504.958 146.915C504.699 146.664 504.352 146.529 503.991 146.532C503.631 146.535 503.286 146.679 503.031 146.934C502.776 147.189 502.631 147.534 502.628 147.895C502.625 148.255 502.764 148.603 503.014 148.862C503.272 149.12 503.622 149.264 503.987 149.264Z" fill="#98C3E8"/>
<path d="M509.156 143.472C509.083 143.305 508.978 143.153 508.847 143.026H508.85C508.591 142.769 508.241 142.624 507.876 142.624C507.512 142.624 507.162 142.77 506.904 143.028C506.646 143.286 506.501 143.636 506.502 144.001C506.502 144.182 506.538 144.36 506.607 144.527C506.676 144.694 506.777 144.846 506.905 144.973C507.032 145.105 507.184 145.209 507.352 145.281C507.52 145.353 507.7 145.39 507.883 145.392C508.066 145.393 508.247 145.358 508.415 145.289C508.584 145.219 508.738 145.117 508.867 144.988C508.995 144.858 509.097 144.705 509.166 144.536C509.235 144.367 509.27 144.185 509.268 144.003C509.266 143.82 509.228 143.64 509.156 143.472Z" fill="#98C3E8"/>
<path d="M497.48 147.361C497.411 147.194 497.309 147.043 497.181 146.915C496.922 146.664 496.575 146.529 496.214 146.532C495.854 146.535 495.509 146.679 495.254 146.934C494.999 147.189 494.854 147.534 494.851 147.895C494.848 148.255 494.987 148.603 495.237 148.862C495.365 148.99 495.517 149.091 495.684 149.16C495.851 149.229 496.03 149.264 496.21 149.264C496.391 149.264 496.57 149.228 496.737 149.159C496.903 149.09 497.055 148.988 497.183 148.861C497.31 148.733 497.412 148.581 497.481 148.414C497.55 148.247 497.585 148.068 497.585 147.887C497.585 147.707 497.549 147.528 497.48 147.361Z" fill="#98C3E8"/>
<path d="M501.371 143.473C501.302 143.306 501.2 143.154 501.073 143.026H501.07C500.812 142.769 500.462 142.624 500.097 142.624C499.732 142.624 499.382 142.77 499.124 143.028C498.866 143.286 498.722 143.636 498.722 144.001C498.722 144.182 498.758 144.36 498.827 144.527C498.896 144.694 498.998 144.846 499.126 144.973C499.253 145.101 499.405 145.203 499.572 145.272C499.739 145.341 499.918 145.377 500.099 145.377C500.28 145.377 500.459 145.341 500.626 145.272C500.793 145.203 500.945 145.101 501.073 144.973C501.2 144.846 501.302 144.694 501.371 144.527C501.44 144.36 501.476 144.181 501.476 144C501.476 143.819 501.44 143.64 501.371 143.473Z" fill="#98C3E8"/>
<path d="M505.266 139.584C505.194 139.416 505.09 139.265 504.958 139.138C504.699 138.887 504.352 138.749 503.991 138.752C503.631 138.755 503.286 138.9 503.031 139.155C502.776 139.41 502.631 139.754 502.628 140.115C502.625 140.476 502.764 140.823 503.014 141.082C503.141 141.213 503.293 141.318 503.46 141.39C503.628 141.462 503.809 141.5 503.991 141.502C504.174 141.503 504.355 141.469 504.524 141.4C504.693 141.33 504.846 141.228 504.975 141.099C505.104 140.97 505.207 140.817 505.276 140.648C505.345 140.479 505.38 140.298 505.378 140.115C505.376 139.932 505.339 139.752 505.266 139.584Z" fill="#98C3E8"/>
<path fill-rule="evenodd" clip-rule="evenodd" d="M503.22 125.223L485.367 143.109L485.365 143.115L481.226 147.218L481.223 147.223C479.197 149.292 478.069 152.077 478.083 154.973C478.098 157.869 479.253 160.643 481.3 162.692C483.347 164.741 486.119 165.901 489.015 165.919C491.911 165.936 494.697 164.812 496.769 162.788L500.957 158.74L514.724 144.974L518.785 140.769C520.809 138.697 521.934 135.911 521.916 133.015C521.898 130.119 520.739 127.347 518.689 125.3C516.64 123.253 513.867 122.097 510.971 122.083C508.075 122.069 505.29 123.197 503.22 125.223ZM511 124.752C513.188 124.752 515.286 125.621 516.833 127.167C518.38 128.714 519.248 130.812 519.248 133C519.248 135.188 518.38 137.286 516.833 138.833L513.734 142.037L502.016 130.322L505.167 127.167C506.715 125.621 508.813 124.752 511 124.752ZM500.074 132.269L511.806 144L500 155.806L488.28 144.085L500.074 132.269ZM486.333 146.027L498.037 157.731L494.847 160.814L494.83 160.83C493.268 162.296 491.196 163.098 489.054 163.064C486.912 163.03 484.866 162.164 483.351 160.649C481.836 159.134 480.969 157.089 480.935 154.947C480.901 152.804 481.701 150.733 483.167 149.17L486.333 146.027Z" fill="#98C3E8"/>
<g filter="url(#filter1_d_0_1548)">
<path d="M440.423 10H412.992C409.207 10 406.139 13.0475 406.139 16.8068V44.0493C406.139 47.8086 409.207 50.8561 412.992 50.8561H440.423C444.208 50.8561 447.277 47.8086 447.277 44.0493V16.8068C447.277 13.0475 444.208 10 440.423 10Z" fill="#56CCF2"/>
</g>
<path d="M427 43C428.591 43 430.117 42.3679 431.243 41.2426C432.368 40.1174 433 38.5913 433 37C434.591 37 436.117 36.3679 437.243 35.2426C438.368 34.1174 439 32.5913 439 31C439 29.4087 438.368 27.8826 437.243 26.7574C436.117 25.6321 434.591 25 433 25C433 23.4087 432.368 21.8826 431.243 20.7574C430.117 19.6321 428.591 19 427 19C425.409 19 423.883 19.6321 422.757 20.7574C421.632 21.8826 421 23.4087 421 25C419.409 25 417.883 25.6321 416.757 26.7574C415.632 27.8826 415 29.4087 415 31C415 32.5913 415.632 34.1174 416.757 35.2426C417.883 36.3679 419.409 37 421 37C421 38.5913 421.632 40.1174 422.757 41.2426C423.883 42.3679 425.409 43 427 43ZM431.5 25C431.5 25.1095 431.485 25.2325 431.455 25.3705C430.639 25.732 429.818 26.3275 429.058 26.9965C428.422 26.669 427.716 26.4987 427 26.5C426.259 26.5 425.56 26.68 424.942 26.9965C424.181 26.3275 423.361 25.732 422.547 25.3705C422.517 25.2491 422.502 25.1248 422.5 25C422.5 23.8065 422.974 22.6619 423.818 21.818C424.662 20.9741 425.807 20.5 427 20.5C428.193 20.5 429.338 20.9741 430.182 21.818C431.026 22.6619 431.5 23.8065 431.5 25V25ZM430.282 34.078C431.066 33.2448 431.501 32.1438 431.5 31C431.501 29.8562 431.066 28.7552 430.282 27.922C430.604 27.652 430.93 27.403 431.253 27.1915C432.01 26.6965 432.598 26.5 433 26.5C434.193 26.5 435.338 26.9741 436.182 27.818C437.026 28.6619 437.5 29.8065 437.5 31C437.5 32.1935 437.026 33.3381 436.182 34.182C435.338 35.0259 434.193 35.5 433 35.5C432.598 35.5 432.01 35.305 431.253 34.8085C430.915 34.5844 430.591 34.3405 430.282 34.078V34.078ZM424.942 35.0035C425.579 35.3308 426.284 35.5015 427 35.5015C427.716 35.5015 428.421 35.3308 429.058 35.0035C429.818 35.6725 430.639 36.2665 431.455 36.6295C431.485 36.766 431.5 36.8905 431.5 37C431.5 38.1935 431.026 39.3381 430.182 40.182C429.338 41.0259 428.193 41.5 427 41.5C425.807 41.5 424.662 41.0259 423.818 40.182C422.974 39.3381 422.5 38.1935 422.5 37C422.5 36.8905 422.515 36.7675 422.545 36.6295C423.361 36.2665 424.181 35.6725 424.942 35.0035ZM423.718 27.922C422.934 28.7552 422.499 29.8562 422.5 31C422.5 32.191 422.962 33.274 423.718 34.078C423.409 34.3405 423.085 34.5844 422.747 34.8085C421.99 35.3035 421.402 35.5 421 35.5C419.807 35.5 418.662 35.0259 417.818 34.182C416.974 33.3381 416.5 32.1935 416.5 31C416.5 29.8065 416.974 28.6619 417.818 27.818C418.662 26.9741 419.807 26.5 421 26.5C421.402 26.5 421.99 26.695 422.747 27.1915C423.07 27.403 423.395 27.6505 423.718 27.922ZM427 32.5C426.602 32.5 426.221 32.342 425.939 32.0607C425.658 31.7794 425.5 31.3978 425.5 31C425.5 30.6022 425.658 30.2206 425.939 29.9393C426.221 29.658 426.602 29.5 427 29.5C427.398 29.5 427.779 29.658 428.061 29.9393C428.342 30.2206 428.5 30.6022 428.5 31C428.5 31.3978 428.342 31.7794 428.061 32.0607C427.779 32.342 427.398 32.5 427 32.5V32.5Z" fill="white"/>
<g filter="url(#filter2_d_0_1548)">
<path d="M614.284 113H586.854C583.069 113 580 116.048 580 119.807V147.049C580 150.809 583.069 153.856 586.854 153.856H614.284C618.07 153.856 621.138 150.809 621.138 147.049V119.807C621.138 116.048 618.07 113 614.284 113Z" fill="#F2C94C"/>
</g>
<path fill-rule="evenodd" clip-rule="evenodd" d="M601 132.5C601.133 132.5 601.26 132.553 601.354 132.646C601.447 132.74 601.5 132.867 601.5 133V134.5H603C603.133 134.5 603.26 134.553 603.354 134.646C603.447 134.74 603.5 134.867 603.5 135C603.5 135.133 603.447 135.26 603.354 135.354C603.26 135.447 603.133 135.5 603 135.5H601.5V137C601.5 137.133 601.447 137.26 601.354 137.354C601.26 137.447 601.133 137.5 601 137.5C600.867 137.5 600.74 137.447 600.646 137.354C600.553 137.26 600.5 137.133 600.5 137V135.5H599C598.867 135.5 598.74 135.447 598.646 135.354C598.553 135.26 598.5 135.133 598.5 135C598.5 134.867 598.553 134.74 598.646 134.646C598.74 134.553 598.867 134.5 599 134.5H600.5V133C600.5 132.867 600.553 132.74 600.646 132.646C600.74 132.553 600.867 132.5 601 132.5Z" fill="white"/>
<path d="M601 126C601.663 126 602.299 126.263 602.768 126.732C603.237 127.201 603.5 127.837 603.5 128.5V129H598.5V128.5C598.5 127.837 598.763 127.201 599.232 126.732C599.701 126.263 600.337 126 601 126ZM604.5 129V128.5C604.5 127.572 604.131 126.682 603.475 126.025C602.818 125.369 601.928 125 601 125C600.072 125 599.182 125.369 598.525 126.025C597.869 126.682 597.5 127.572 597.5 128.5V129H594V139C594 139.53 594.211 140.039 594.586 140.414C594.961 140.789 595.47 141 596 141H606C606.53 141 607.039 140.789 607.414 140.414C607.789 140.039 608 139.53 608 139V129H604.5ZM595 130H607V139C607 139.265 606.895 139.52 606.707 139.707C606.52 139.895 606.265 140 606 140H596C595.735 140 595.48 139.895 595.293 139.707C595.105 139.52 595 139.265 595 139V130Z" fill="white"/>
<g filter="url(#filter3_d_0_1548)">
<path d="M394.284 113H366.854C363.069 113 360 116.048 360 119.807V147.049C360 150.809 363.069 153.856 366.854 153.856H394.284C398.07 153.856 401.138 150.809 401.138 147.049V119.807C401.138 116.048 398.07 113 394.284 113Z" fill="#F58A8A"/>
</g>
<path d="M382.78 120.22C382.921 120.36 383 120.551 383 120.75C383 120.949 383.079 121.14 383.22 121.28C383.36 121.421 383.551 121.5 383.75 121.5C383.949 121.5 384.14 121.579 384.28 121.72C384.421 121.86 384.5 122.051 384.5 122.25V123C384.5 123.199 384.421 123.39 384.28 123.53C384.14 123.671 383.949 123.75 383.75 123.75H376.25C376.051 123.75 375.86 123.671 375.72 123.53C375.579 123.39 375.5 123.199 375.5 123V122.25C375.5 122.051 375.579 121.86 375.72 121.72C375.86 121.579 376.051 121.5 376.25 121.5C376.449 121.5 376.64 121.421 376.78 121.28C376.921 121.14 377 120.949 377 120.75C377 120.551 377.079 120.36 377.22 120.22C377.36 120.079 377.551 120 377.75 120H382.25C382.449 120 382.64 120.079 382.78 120.22Z" fill="white"/>
<path fill-rule="evenodd" clip-rule="evenodd" d="M373.25 121.5H374.128C374.045 121.734 374 121.988 374 122.25V123C374 123.597 374.237 124.169 374.659 124.591C375.081 125.013 375.653 125.25 376.25 125.25H383.75C384.347 125.25 384.919 125.013 385.341 124.591C385.763 124.169 386 123.597 386 123V122.25C386 121.988 385.955 121.734 385.872 121.5H386.75C387.347 121.5 387.919 121.737 388.341 122.159C388.763 122.581 389 123.153 389 123.75V141.75C389 142.347 388.763 142.919 388.341 143.341C387.919 143.763 387.347 144 386.75 144H373.25C372.653 144 372.081 143.763 371.659 143.341C371.237 142.919 371 142.347 371 141.75V123.75C371 123.153 371.237 122.581 371.659 122.159C372.081 121.737 372.653 121.5 373.25 121.5ZM385.058 135L382.97 128.034C382.922 127.874 382.821 127.735 382.686 127.639C382.55 127.542 382.386 127.493 382.22 127.5C382.053 127.506 381.894 127.568 381.767 127.676C381.639 127.783 381.551 127.93 381.516 128.092L379.879 135.737L378.469 131.034C378.425 130.89 378.34 130.763 378.223 130.668C378.107 130.573 377.964 130.515 377.815 130.502C377.665 130.49 377.515 130.522 377.384 130.595C377.253 130.669 377.147 130.78 377.079 130.914L375.036 135H374.75C374.551 135 374.36 135.079 374.22 135.22C374.079 135.36 374 135.551 374 135.75C374 135.949 374.079 136.14 374.22 136.28C374.36 136.421 374.551 136.5 374.75 136.5H375.5C375.639 136.5 375.776 136.461 375.894 136.388C376.013 136.314 376.108 136.209 376.171 136.084L377.574 133.275L379.281 138.966C379.329 139.126 379.429 139.265 379.564 139.361C379.7 139.458 379.864 139.507 380.03 139.5C380.197 139.494 380.356 139.432 380.483 139.324C380.611 139.217 380.699 139.07 380.734 138.907L382.372 131.263L383.781 135.966C383.828 136.12 383.923 136.256 384.052 136.352C384.182 136.448 384.339 136.5 384.5 136.5H385.25C385.449 136.5 385.64 136.421 385.78 136.28C385.921 136.14 386 135.949 386 135.75C386 135.551 385.921 135.36 385.78 135.22C385.64 135.079 385.449 135 385.25 135H385.058Z" fill="white"/>
<g filter="url(#filter4_d_0_1548)">
<path d="M568.284 10H540.854C537.069 10 534 13.0475 534 16.8068V44.0493C534 47.8086 537.069 50.8561 540.854 50.8561H568.284C572.07 50.8561 575.138 47.8086 575.138 44.0493V16.8068C575.138 13.0475 572.07 10 568.284 10Z" fill="#6FCF97"/>
</g>
<g clip-path="url(#clip0_0_1548)">
<path d="M546 19C545.204 19 544.441 19.3161 543.879 19.8787C543.316 20.4413 543 21.2044 543 22V34C543 34.7956 543.316 35.5587 543.879 36.1213C544.441 36.6839 545.204 37 546 37H549.75C549.983 37 550.213 37.0542 550.421 37.1584C550.629 37.2625 550.81 37.4137 550.95 37.6L553.8 41.3995C553.94 41.5858 554.121 41.737 554.329 41.8411C554.537 41.9453 554.767 41.9995 555 41.9995C555.233 41.9995 555.463 41.9453 555.671 41.8411C555.879 41.737 556.06 41.5858 556.2 41.3995L559.05 37.6C559.19 37.4137 559.371 37.2625 559.579 37.1584C559.787 37.0542 560.017 37 560.25 37H564C564.796 37 565.559 36.6839 566.121 36.1213C566.684 35.5587 567 34.7956 567 34V22C567 21.2044 566.684 20.4413 566.121 19.8787C565.559 19.3161 564.796 19 564 19H546ZM555 24.9895C557.496 22.423 563.737 26.914 555 32.6875C546.263 26.9125 552.504 22.423 555 24.9895V24.9895Z" fill="white"/>
</g>
<path d="M500.39 183C499.274 187.364 500.787 189.88 501.978 190.5C504.34 191.73 506.977 193.27 506.977 193.27C506.977 193.27 523.406 221.414 528.168 223.429C533.724 225.778 546.422 227 546.422 227L551.978 215.889C551.978 215.889 539.279 213.111 533.724 211.921C529.98 211.118 513.486 193.27 513.486 193.27L516.66 187.714H510.708C506.343 184.54 503.977 178 503.977 178C503.977 178 501.153 180.02 500.39 183Z" fill="url(#paint1_linear_0_1548)"/>
<path d="M565.478 233.5C563.478 231.5 551.978 228.333 546.478 227L551.978 216C554.144 216 560.478 215.5 568.478 213.5C578.478 211 581.978 202 593.478 211.5C602.678 219.1 618.644 252.333 625.478 268C614.731 278.243 607.594 281.569 593.478 284.5C592.644 282.833 590.178 277.2 586.978 268C582.978 256.5 570.478 256.5 568.478 252.5C566.478 248.5 567.978 236 565.478 233.5Z" fill="url(#paint2_linear_0_1548)"/>
<path d="M601.478 347C597.878 339 597.811 301 596.478 283.5C608.671 281.103 615.111 278.016 625.478 267.5C625.478 267.5 642.478 275.5 641.478 294C640.478 312.5 647.998 321.841 652.478 328C656.478 333.5 665.978 345.167 670.978 353L665.978 362.5C660.478 356.667 644.378 344.8 635.978 338C627.578 331.2 624.811 314.167 623.478 305C622.644 314.667 618.478 332.4 620.478 338C622.478 343.6 643.978 360.5 652.478 369L649.478 377.5C634.978 370.667 605.078 355 601.478 347Z" fill="url(#paint3_linear_0_1548)"/>
<path d="M559.477 199.5C559.877 197.9 559.311 193.167 559.978 191.5C564.778 192.3 567.477 195.667 568.477 197C569.477 196.833 570.912 196.369 571.477 197.5C571.977 198.5 571.477 200.5 569.977 202L573.477 211.5C571.819 212.577 570.809 212.939 568.977 213.5C569.977 211 569.477 209 568.977 208C565.377 210.8 563.977 210.667 562.477 210.5L560.977 204L558.478 204.5C558.978 203.667 559.077 201.1 559.477 199.5Z" fill="url(#paint4_linear_0_1548)"/>
<path d="M568.477 197C566.477 194.2 561.644 192.167 559.477 191.5C555.477 188.5 557.477 182 566.977 179C576.477 176 580.477 184 582.477 186C584.477 188 585.477 194.5 594.477 198.5C603.477 202.5 602.977 197.5 608.477 197.5C613.977 197.5 616.477 201 615.477 204C614.477 207 613.977 210.5 619.977 214.5C625.977 218.5 620.477 224 619.977 230C619.477 236 611.477 233 602.977 233C594.477 233 595.977 233 594.477 227.5C592.977 222 590.477 220 587.477 218.5C584.477 217 577.477 218 575.977 216.5C574.777 215.3 571.477 206.333 569.977 202C570.644 201 571.877 198.7 571.477 197.5C571.077 196.3 569.31 196.667 568.477 197Z" fill="#F2994A"/>
<path d="M549.478 257.5L573.478 256C576.278 256.4 580.978 259.833 582.978 261.5C582.311 263 580.378 266 577.978 266C575.578 266 557.978 263 549.478 261.5H547.478V254L549.478 257.5Z" fill="url(#paint5_linear_0_1548)"/>
<path d="M547.478 265V248H538.978V265H547.478Z" fill="#F2C94C"/>
<path d="M665.978 391.5C663.578 391.1 653.811 381.833 649.478 377.5L652.478 369C654.478 369.833 658.678 371.3 659.478 372.5C660.478 374 668.978 392 665.978 391.5Z" fill="#5A98D0"/>
<path d="M677.978 380.5C676.778 378.5 669.478 368.833 665.978 362.5L670.978 353C673.311 355 673.478 355 675.978 358.5C677.14 360.127 679.478 383 677.978 380.5Z" fill="#5A98D0"/>
<path opacity="0.2" d="M626.478 290.5L623.478 305.5C623.978 311 626.978 324.5 631.978 334C625.978 315 627.978 300.833 626.478 290.5Z" fill="black"/>
<path d="M196 515L194.5 510L202.5 508.5C206.333 510.5 213.7 514.9 212.5 516.5C212.1 517.3 201.333 515.833 196 515Z" fill="#D06262"/>
<path d="M155.5 468L160 475.5C159.667 480.667 158.6 490.8 157 490C155.4 489.2 150.333 476.333 148 470L155.5 468Z" fill="#D06262"/>
<path d="M129.328 422.993C123.999 417.458 119.156 407.024 117.401 402.5C122.529 400.019 133.924 394.352 138.484 391.522C143.044 388.693 151.693 382.274 155.447 379.418C157.637 381.392 164.01 386.262 171.981 389.948C192.452 399.613 204.145 412.095 208.185 423.272C211.418 432.213 198.175 445.449 190.651 450.994C186.292 443.586 183.669 440.59 178.501 433.534L180.257 425.338L169.933 422.271C171.459 424.307 176.461 431.01 184.258 441.54C198.328 459.125 203.2 489.172 203.878 501.997C201.253 502.573 194.79 503.636 189.937 503.279C189.364 497.05 181.559 483.211 174.106 470.959C172.59 472.773 170.489 474.942 169.265 475.054C163.07 473.214 161.151 465.089 160.966 461.256L165.648 457.335C165.006 456.31 164.406 455.349 163.856 454.463C156.193 442.113 135.99 429.912 129.328 422.993Z" fill="#1F3F68"/>
<path d="M157.347 378.239C142.813 389.451 112.728 409.557 108.662 400.291C103.58 388.708 104.576 388.616 101.766 385.36C98.9555 382.103 98.2686 374.635 96.998 371.739C96.3594 370.284 91.211 363.917 87.0954 356.08C87.0954 356.08 86.9717 355.853 86.7625 355.439C83.8406 349.737 81.5329 343.32 81.9125 337.477C82.2029 328.914 88.7162 323.391 88.7162 323.391C92.5981 319.253 96.2389 318.558 97.5 318.669L97.5233 318.685C100.558 320.749 105.045 323.8 106.634 323.654C108.228 323.508 110.5 320.5 112 319C119.606 319.807 121.929 317.859 127.874 318.669C135.205 319.669 155 330 170.5 302.5C172.04 302.861 175.511 304.229 178 304C169.5 329 162 336.781 155 339.231C149.628 341.112 145.395 341.636 142.052 341.602C141.438 344.863 140.623 350.224 139.263 355.691C142.058 360.807 145.012 365.505 147.332 367.612C153.358 373.083 160.163 376.102 157.347 378.239Z" fill="white"/>
<path d="M157.062 407.89L170.477 422.723L180.258 425.338L179.674 429.911C181.919 427.027 184.797 420.101 178.346 415.472C171.895 410.844 161.469 408.489 157.062 407.89Z" fill="black" fill-opacity="0.2"/>
<path d="M165.625 457.313L173.923 471.111L172.567 472.742C171.342 470.344 168.126 468.129 165.408 465.869C163.233 464.061 162.777 460.922 162.821 459.579L165.625 457.313Z" fill="black" fill-opacity="0.2"/>
<path d="M127.067 382.028C112.87 380.522 95.6038 365.675 88.7456 358.439C104.604 372.546 123.032 376.374 128.87 374.331C133.54 372.696 137.12 360.527 139.001 355.5L142.799 362.003C143.471 369.306 141.265 383.534 127.067 382.028Z" fill="black" fill-opacity="0.2"/>
<path d="M121.967 353.877C118.82 354.452 110.674 347.551 107.019 344.206C120.474 354.014 120.5 349 137.5 337C136.762 338.072 129.5 352.5 121.967 353.877Z" fill="black" fill-opacity="0.2"/>
<path d="M142.5 339.5C140.787 339.156 139.296 338.576 137.5 337L139 333.5C138.833 332.667 138.6 330.8 139 330C139.4 329.2 141 328.333 141.5 328L141 330.5L143.5 327.5L147.5 331L147 334.5L144 336L142.5 339.5Z" fill="#F2994A"/>
<path d="M179 299L178 304C176.4 304.4 172.167 303.167 170.5 302.5C171 301 172.6 297 173 295C173.4 293 177.167 290.833 179 290H181L179 293.5V299Z" fill="#F2994A"/>
<path d="M94.9997 308.5C95.7997 310.1 97.9997 313.5 98.9997 315C99.6664 313.667 100.6 310.7 98.9997 309.5C97.3997 308.3 95.9997 306.333 95.4998 305.5C95.9998 305.167 97.2998 304.5 98.4998 304.5C97.6998 298.5 101.833 296.333 104 296L112.5 295.5L113 298C116.166 295 121.9 288.5 119.5 286.5C116.5 284 107.5 290.5 101.5 290.5C95.4998 290.5 92.9997 293.5 91.4997 296.5C89.9997 299.5 93.9997 306.5 94.9997 308.5Z" fill="#316099"/>
<path d="M106.5 324C104.9 324 100.333 320.833 97.5 319C98.8333 318.333 99.5 315.8 99.5 315C99.5 314 100.5 310 99.5 309.5C98.5 309 95.5 307 95.5 306C95.5 305.2 97.5 305 98.5 305C98.1667 303.333 98.1 299.5 100.5 297.5C102.9 295.5 109.5 295.333 112.5 295.5C112.667 296.167 113.3 299 114.5 305C115.7 311 113 313.833 111.5 314.5L112 319C110.833 320.5 108.1 324 106.5 324Z" fill="#F2994A"/>
<path d="M202.5 508.5L202 502.5C198.469 503.446 196.371 503.613 192.5 503.5L194.5 510L202.5 508.5Z" fill="#98C3E8"/>
<path d="M160 475.5L166 473.5C163.322 470.423 162.421 468.668 161.5 465.5L155.5 468L160 475.5Z" fill="#98C3E8"/>
<rect opacity="0.8" x="187" y="228" width="266.284" height="189.301" rx="5" fill="url(#paint6_linear_0_1548)"/>
<path d="M187 233C187 230.239 189.239 228 192 228H263.983V417.301H192C189.239 417.301 187 415.063 187 412.301V233Z" fill="white"/>
<circle cx="199" cy="240" r="4" fill="#FA9595"/>
<circle cx="212" cy="240" r="4" fill="#FDF397"/>
<circle cx="224" cy="240" r="4" fill="#C1FEBB"/>
<path opacity="0.4" fill-rule="evenodd" clip-rule="evenodd" d="M196 334H254V341H196V334ZM196 348H254V355H196V348ZM235 364H196V371H235V364Z" fill="#5A98D0"/>
<path opacity="0.1" fill-rule="evenodd" clip-rule="evenodd" d="M373 253H431V260H373V253ZM373 267H431V274H373V267ZM412 283H373V290H412V283Z" fill="black"/>
<g filter="url(#filter5_d_0_1548)">
<rect x="179" y="254" width="81" height="50" rx="5" fill="#56CCF2"/>
</g>
<path d="M205.712 282.936C205.595 282.968 205.408 283 205.152 283.032C204.907 283.064 204.661 283.08 204.416 283.08C204.171 283.08 203.952 283.059 203.76 283.016C203.579 282.984 203.424 282.92 203.296 282.824C203.168 282.728 203.072 282.595 203.008 282.424C202.944 282.253 202.912 282.029 202.912 281.752V279.256H199.84V282.936C199.723 282.968 199.536 283 199.28 283.032C199.035 283.064 198.789 283.08 198.544 283.08C198.299 283.08 198.08 283.059 197.888 283.016C197.707 282.984 197.552 282.92 197.424 282.824C197.296 282.728 197.2 282.595 197.136 282.424C197.072 282.253 197.04 282.029 197.04 281.752V273.304C197.157 273.283 197.344 273.256 197.6 273.224C197.856 273.181 198.101 273.16 198.336 273.16C198.581 273.16 198.795 273.181 198.976 273.224C199.168 273.256 199.328 273.32 199.456 273.416C199.584 273.512 199.68 273.645 199.744 273.816C199.808 273.987 199.84 274.211 199.84 274.488V277.048H202.912V273.304C203.029 273.283 203.216 273.256 203.472 273.224C203.728 273.181 203.973 273.16 204.208 273.16C204.453 273.16 204.667 273.181 204.848 273.224C205.04 273.256 205.2 273.32 205.328 273.416C205.456 273.512 205.552 273.645 205.616 273.816C205.68 273.987 205.712 274.211 205.712 274.488V282.936ZM212.494 283.256C211.865 283.256 211.278 283.171 210.734 283C210.201 282.819 209.731 282.552 209.326 282.2C208.931 281.848 208.617 281.405 208.382 280.872C208.158 280.339 208.046 279.715 208.046 279C208.046 278.296 208.158 277.693 208.382 277.192C208.617 276.68 208.921 276.264 209.294 275.944C209.667 275.613 210.094 275.373 210.574 275.224C211.054 275.064 211.545 274.984 212.046 274.984C212.611 274.984 213.123 275.069 213.582 275.24C214.051 275.411 214.451 275.645 214.782 275.944C215.123 276.243 215.385 276.6 215.566 277.016C215.758 277.432 215.854 277.885 215.854 278.376C215.854 278.739 215.753 279.016 215.55 279.208C215.347 279.4 215.065 279.523 214.702 279.576L210.75 280.168C210.867 280.52 211.107 280.787 211.47 280.968C211.833 281.139 212.249 281.224 212.718 281.224C213.155 281.224 213.566 281.171 213.95 281.064C214.345 280.947 214.665 280.813 214.91 280.664C215.081 280.771 215.225 280.92 215.342 281.112C215.459 281.304 215.518 281.507 215.518 281.72C215.518 282.2 215.294 282.557 214.846 282.792C214.505 282.973 214.121 283.096 213.694 283.16C213.267 283.224 212.867 283.256 212.494 283.256ZM212.046 276.968C211.79 276.968 211.566 277.011 211.374 277.096C211.193 277.181 211.043 277.293 210.926 277.432C210.809 277.56 210.718 277.709 210.654 277.88C210.601 278.04 210.569 278.205 210.558 278.376L213.294 277.928C213.262 277.715 213.145 277.501 212.942 277.288C212.739 277.075 212.441 276.968 212.046 276.968ZM221.291 281.272C221.473 281.272 221.67 281.256 221.883 281.224C222.107 281.181 222.273 281.128 222.379 281.064V279.784L221.227 279.88C220.929 279.901 220.683 279.965 220.491 280.072C220.299 280.179 220.203 280.339 220.203 280.552C220.203 280.765 220.283 280.941 220.443 281.08C220.614 281.208 220.897 281.272 221.291 281.272ZM221.163 274.984C221.739 274.984 222.262 275.043 222.731 275.16C223.211 275.277 223.617 275.459 223.947 275.704C224.289 275.939 224.55 276.243 224.731 276.616C224.913 276.979 225.003 277.411 225.003 277.912V281.496C225.003 281.773 224.923 282.003 224.763 282.184C224.614 282.355 224.433 282.504 224.219 282.632C223.526 283.048 222.55 283.256 221.291 283.256C220.726 283.256 220.214 283.203 219.755 283.096C219.307 282.989 218.918 282.829 218.587 282.616C218.267 282.403 218.017 282.131 217.835 281.8C217.665 281.469 217.579 281.085 217.579 280.648C217.579 279.912 217.798 279.347 218.235 278.952C218.673 278.557 219.35 278.312 220.267 278.216L222.363 277.992V277.88C222.363 277.571 222.225 277.352 221.947 277.224C221.681 277.085 221.291 277.016 220.779 277.016C220.374 277.016 219.979 277.059 219.595 277.144C219.211 277.229 218.865 277.336 218.555 277.464C218.417 277.368 218.299 277.224 218.203 277.032C218.107 276.829 218.059 276.621 218.059 276.408C218.059 276.131 218.123 275.912 218.251 275.752C218.39 275.581 218.598 275.437 218.875 275.32C219.185 275.203 219.547 275.117 219.963 275.064C220.39 275.011 220.79 274.984 221.163 274.984ZM230.234 282.984C230.117 283.005 229.941 283.032 229.706 283.064C229.482 283.107 229.253 283.128 229.018 283.128C228.784 283.128 228.57 283.112 228.378 283.08C228.197 283.048 228.042 282.984 227.914 282.888C227.786 282.792 227.685 282.664 227.61 282.504C227.546 282.333 227.514 282.115 227.514 281.848V272.568C227.632 272.547 227.802 272.52 228.026 272.488C228.261 272.445 228.496 272.424 228.73 272.424C228.965 272.424 229.173 272.44 229.354 272.472C229.546 272.504 229.706 272.568 229.834 272.664C229.962 272.76 230.058 272.893 230.122 273.064C230.197 273.224 230.234 273.437 230.234 273.704V282.984ZM235.471 280.328C235.471 280.605 235.556 280.803 235.727 280.92C235.908 281.037 236.159 281.096 236.479 281.096C236.639 281.096 236.804 281.085 236.975 281.064C237.145 281.032 237.295 280.995 237.423 280.952C237.519 281.069 237.599 281.203 237.663 281.352C237.737 281.491 237.775 281.661 237.775 281.864C237.775 282.269 237.62 282.6 237.311 282.856C237.012 283.112 236.479 283.24 235.711 283.24C234.772 283.24 234.047 283.027 233.535 282.6C233.033 282.173 232.783 281.48 232.783 280.52V273.672C232.9 273.64 233.065 273.608 233.279 273.576C233.503 273.533 233.737 273.512 233.983 273.512C234.452 273.512 234.815 273.597 235.071 273.768C235.337 273.928 235.471 274.275 235.471 274.808V275.832H237.567C237.631 275.949 237.689 276.099 237.743 276.28C237.807 276.451 237.839 276.643 237.839 276.856C237.839 277.229 237.753 277.501 237.583 277.672C237.423 277.832 237.204 277.912 236.927 277.912H235.471V280.328ZM247.637 282.984C247.53 283.016 247.36 283.048 247.125 283.08C246.901 283.112 246.666 283.128 246.421 283.128C246.186 283.128 245.973 283.112 245.781 283.08C245.6 283.048 245.445 282.984 245.317 282.888C245.189 282.792 245.088 282.664 245.013 282.504C244.949 282.333 244.917 282.115 244.917 281.848V278.296C244.917 277.859 244.805 277.555 244.581 277.384C244.368 277.203 244.101 277.112 243.781 277.112C243.568 277.112 243.365 277.139 243.173 277.192C242.981 277.245 242.826 277.309 242.709 277.384V282.984C242.602 283.016 242.432 283.048 242.197 283.08C241.973 283.112 241.738 283.128 241.493 283.128C241.258 283.128 241.045 283.112 240.853 283.08C240.672 283.048 240.517 282.984 240.389 282.888C240.261 282.792 240.16 282.664 240.085 282.504C240.021 282.333 239.989 282.115 239.989 281.848V272.568C240.106 272.547 240.277 272.52 240.501 272.488C240.736 272.445 240.97 272.424 241.205 272.424C241.44 272.424 241.648 272.44 241.829 272.472C242.021 272.504 242.181 272.568 242.309 272.664C242.437 272.76 242.533 272.893 242.597 273.064C242.672 273.224 242.709 273.437 242.709 273.704V275.272C242.848 275.219 243.056 275.16 243.333 275.096C243.621 275.021 243.936 274.984 244.277 274.984C245.333 274.984 246.154 275.251 246.741 275.784C247.338 276.307 247.637 277.091 247.637 278.136V282.984Z" fill="white"/>
<rect x="281" y="246" width="79" height="77" rx="5" fill="#EB5757"/>
<g filter="url(#filter6_d_0_1548)">
<rect x="281" y="336" width="154" height="63" rx="5" fill="#6FCF97"/>
</g>
<path d="M294.5 381C304 374.5 308 366 326 366C344 366 345.58 376 356.5 376C369.5 376 382 356.5 396 356.5C410 356.5 413.5 366.5 421 367" stroke="black" stroke-opacity="0.1" stroke-width="2" stroke-linecap="round" stroke-linejoin="round"/>
<path d="M294 381.5C303.5 375 306 356 324 356C342 356 346.08 372.5 357 372.5C370 372.5 381.5 345.5 395.5 345.5C409.5 345.5 414 366.5 421.5 367" stroke="white" stroke-width="2" stroke-linecap="round" stroke-linejoin="round"/>
<defs>
<filter id="filter0_d_0_1548" x="403" y="50" width="188" height="188" filterUnits="userSpaceOnUse" color-interpolation-filters="sRGB">
<feFlood flood-opacity="0" result="BackgroundImageFix"/>
<feColorMatrix in="SourceAlpha" type="matrix" values="0 0 0 0 0 0 0 0 0 0 0 0 0 0 0 0 0 0 127 0" result="hardAlpha"/>
<feOffset/>
<feGaussianBlur stdDeviation="25"/>
<feColorMatrix type="matrix" values="0 0 0 0 0.0627451 0 0 0 0 0.439216 0 0 0 0 0.694118 0 0 0 0.25 0"/>
<feBlend mode="normal" in2="BackgroundImageFix" result="effect1_dropShadow_0_1548"/>
<feBlend mode="normal" in="SourceGraphic" in2="effect1_dropShadow_0_1548" result="shape"/>
</filter>
<filter id="filter1_d_0_1548" x="396.139" y="0" width="71.1377" height="70.8561" filterUnits="userSpaceOnUse" color-interpolation-filters="sRGB">
<feFlood flood-opacity="0" result="BackgroundImageFix"/>
<feColorMatrix in="SourceAlpha" type="matrix" values="0 0 0 0 0 0 0 0 0 0 0 0 0 0 0 0 0 0 127 0" result="hardAlpha"/>
<feOffset dx="5" dy="5"/>
<feGaussianBlur stdDeviation="7.5"/>
<feColorMatrix type="matrix" values="0 0 0 0 0 0 0 0 0 0 0 0 0 0 0 0 0 0 0.15 0"/>
<feBlend mode="normal" in2="BackgroundImageFix" result="effect1_dropShadow_0_1548"/>
<feBlend mode="normal" in="SourceGraphic" in2="effect1_dropShadow_0_1548" result="shape"/>
</filter>
<filter id="filter2_d_0_1548" x="570" y="103" width="71.1377" height="70.8561" filterUnits="userSpaceOnUse" color-interpolation-filters="sRGB">
<feFlood flood-opacity="0" result="BackgroundImageFix"/>
<feColorMatrix in="SourceAlpha" type="matrix" values="0 0 0 0 0 0 0 0 0 0 0 0 0 0 0 0 0 0 127 0" result="hardAlpha"/>
<feOffset dx="5" dy="5"/>
<feGaussianBlur stdDeviation="7.5"/>
<feColorMatrix type="matrix" values="0 0 0 0 0 0 0 0 0 0 0 0 0 0 0 0 0 0 0.15 0"/>
<feBlend mode="normal" in2="BackgroundImageFix" result="effect1_dropShadow_0_1548"/>
<feBlend mode="normal" in="SourceGraphic" in2="effect1_dropShadow_0_1548" result="shape"/>
</filter>
<filter id="filter3_d_0_1548" x="350" y="103" width="71.1377" height="70.8561" filterUnits="userSpaceOnUse" color-interpolation-filters="sRGB">
<feFlood flood-opacity="0" result="BackgroundImageFix"/>
<feColorMatrix in="SourceAlpha" type="matrix" values="0 0 0 0 0 0 0 0 0 0 0 0 0 0 0 0 0 0 127 0" result="hardAlpha"/>
<feOffset dx="5" dy="5"/>
<feGaussianBlur stdDeviation="7.5"/>
<feColorMatrix type="matrix" values="0 0 0 0 0 0 0 0 0 0 0 0 0 0 0 0 0 0 0.15 0"/>
<feBlend mode="normal" in2="BackgroundImageFix" result="effect1_dropShadow_0_1548"/>
<feBlend mode="normal" in="SourceGraphic" in2="effect1_dropShadow_0_1548" result="shape"/>
</filter>
<filter id="filter4_d_0_1548" x="524" y="0" width="71.1377" height="70.8561" filterUnits="userSpaceOnUse" color-interpolation-filters="sRGB">
<feFlood flood-opacity="0" result="BackgroundImageFix"/>
<feColorMatrix in="SourceAlpha" type="matrix" values="0 0 0 0 0 0 0 0 0 0 0 0 0 0 0 0 0 0 127 0" result="hardAlpha"/>
<feOffset dx="5" dy="5"/>
<feGaussianBlur stdDeviation="7.5"/>
<feColorMatrix type="matrix" values="0 0 0 0 0 0 0 0 0 0 0 0 0 0 0 0 0 0 0.15 0"/>
<feBlend mode="normal" in2="BackgroundImageFix" result="effect1_dropShadow_0_1548"/>
<feBlend mode="normal" in="SourceGraphic" in2="effect1_dropShadow_0_1548" result="shape"/>
</filter>
<filter id="filter5_d_0_1548" x="174" y="249" width="101" height="70" filterUnits="userSpaceOnUse" color-interpolation-filters="sRGB">
<feFlood flood-opacity="0" result="BackgroundImageFix"/>
<feColorMatrix in="SourceAlpha" type="matrix" values="0 0 0 0 0 0 0 0 0 0 0 0 0 0 0 0 0 0 127 0" result="hardAlpha"/>
<feOffset dx="5" dy="5"/>
<feGaussianBlur stdDeviation="5"/>
<feColorMatrix type="matrix" values="0 0 0 0 0.0627451 0 0 0 0 0.439216 0 0 0 0 0.694118 0 0 0 0.2 0"/>
<feBlend mode="normal" in2="BackgroundImageFix" result="effect1_dropShadow_0_1548"/>
<feBlend mode="normal" in="SourceGraphic" in2="effect1_dropShadow_0_1548" result="shape"/>
</filter>
<filter id="filter6_d_0_1548" x="271" y="330" width="174" height="83" filterUnits="userSpaceOnUse" color-interpolation-filters="sRGB">
<feFlood flood-opacity="0" result="BackgroundImageFix"/>
<feColorMatrix in="SourceAlpha" type="matrix" values="0 0 0 0 0 0 0 0 0 0 0 0 0 0 0 0 0 0 127 0" result="hardAlpha"/>
<feOffset dy="4"/>
<feGaussianBlur stdDeviation="5"/>
<feColorMatrix type="matrix" values="0 0 0 0 0.435294 0 0 0 0 0.811765 0 0 0 0 0.592157 0 0 0 0.2 0"/>
<feBlend mode="normal" in2="BackgroundImageFix" result="effect1_dropShadow_0_1548"/>
<feBlend mode="normal" in="SourceGraphic" in2="effect1_dropShadow_0_1548" result="shape"/>
</filter>
<linearGradient id="paint0_linear_0_1548" x1="375.616" y1="-96.3187" x2="337.792" y2="574.507" gradientUnits="userSpaceOnUse">
<stop stop-color="#D1ECFF"/>
<stop offset="1" stop-color="#1070B1"/>
</linearGradient>
<linearGradient id="paint1_linear_0_1548" x1="559.735" y1="190.576" x2="507.964" y2="224.395" gradientUnits="userSpaceOnUse">
<stop stop-color="#FFF8E1"/>
<stop offset="1" stop-color="#FFCC80"/>
</linearGradient>
<linearGradient id="paint2_linear_0_1548" x1="585.978" y1="207.241" x2="585.978" y2="284.5" gradientUnits="userSpaceOnUse">
<stop stop-color="#AF6CED"/>
<stop offset="1" stop-color="#5E199D"/>
</linearGradient>
<linearGradient id="paint3_linear_0_1548" x1="633.728" y1="267.5" x2="633.728" y2="377.5" gradientUnits="userSpaceOnUse">
<stop stop-color="#EB5757"/>
<stop offset="1" stop-color="#872727"/>
</linearGradient>
<linearGradient id="paint4_linear_0_1548" x1="575.716" y1="197.146" x2="557.595" y2="204.755" gradientUnits="userSpaceOnUse">
<stop stop-color="#FFF8E1"/>
<stop offset="1" stop-color="#FFCC80"/>
</linearGradient>
<linearGradient id="paint5_linear_0_1548" x1="588.276" y1="257.08" x2="576.596" y2="278.359" gradientUnits="userSpaceOnUse">
<stop stop-color="#FFF8E1"/>
<stop offset="1" stop-color="#FFCC80"/>
</linearGradient>
<linearGradient id="paint6_linear_0_1548" x1="193.393" y1="297.155" x2="498.893" y2="330.655" gradientUnits="userSpaceOnUse">
<stop offset="0.127122" stop-color="white"/>
<stop offset="0.972261" stop-color="white" stop-opacity="0.8"/>
</linearGradient>
<clipPath id="clip0_0_1548">
<rect width="24" height="24" fill="white" transform="translate(543 19)"/>
</clipPath>
</defs>
</svg>
